<mxfile host="app.diagrams.net" modified="2025-02-03T10:40:13.591Z" agent="Mozilla/5.0 (Windows NT 10.0; Win64; x64) AppleWebKit/537.36 (KHTML, like Gecko) Chrome/132.0.0.0 Safari/537.36 Edg/132.0.0.0" version="24.2.7" etag="rBwdI4aDzRY_QdT8ko5M" type="github">
  <diagram name="Page-1" id="BZXmv4qvQLXh7mB0f6b4">
    <mxGraphModel>
      <root>
        <mxCell id="0" />
        <mxCell id="1" parent="0" />
      </root>
    </mxGraphModel>
  </diagram>
</mxfile>
